<svg width="8 " height="8" viewBox="0 0 6 6" fill="none" xmlns="http://www.w3.org/2000/svg">
<path d="M5.82243 1.02468C6.05669 0.790411 6.05669 0.409964 5.82243 0.175699C5.58816 -0.0585663 5.20771 -0.0585663 4.97345 0.175699L3 2.15102L1.02468 0.177573C0.790411 -0.0566922 0.409964 -0.0566922 0.175699 0.177573C-0.0585663 0.411838 -0.0585663 0.792285 0.175699 1.02655L2.15102 3L0.177573 4.97532C-0.0566922 5.20959 -0.0566922 5.59004 0.177573 5.8243C0.411838 6.05857 0.792285 6.05857 1.02655 5.8243L3 3.84898L4.97532 5.82243C5.20959 6.05669 5.59004 6.05669 5.8243 5.82243C6.05857 5.58816 6.05857 5.20771 5.8243 4.97345L3.84898 3L5.82243 1.02468Z" fill="#5F5C79"/>
</svg>