<svg width="20" height="20" viewBox="0 0 16 16" fill="none" xmlns="http://www.w3.org/2000/svg">
<g clip-path="url(#clip0_408_74)">
<path d="M11.96 11.96C10.8204 12.8286 9.43274 13.3099 8 13.3333C3.33333 13.3333 0.666668 7.99998 0.666668 7.99998C1.49593 6.45457 2.64609 5.10438 4.04 4.03998M6.6 2.82664C7.05889 2.71923 7.52871 2.66554 8 2.66664C12.6667 2.66664 15.3333 7.99998 15.3333 7.99998C14.9287 8.75705 14.446 9.4698 13.8933 10.1266M9.41333 9.41331C9.23024 9.60981 9.00943 9.76741 8.7641 9.87673C8.51877 9.98604 8.25394 10.0448 7.9854 10.0496C7.71685 10.0543 7.45011 10.0049 7.20107 9.9043C6.95204 9.80371 6.72582 9.654 6.5359 9.46408C6.34598 9.27416 6.19626 9.04794 6.09567 8.7989C5.99508 8.54987 5.94569 8.28312 5.95042 8.01458C5.95516 7.74604 6.01394 7.48121 6.12325 7.23587C6.23256 6.99054 6.39017 6.76974 6.58667 6.58664" stroke="#5F5C79" stroke-linecap="round" stroke-linejoin="round"/>
<path d="M0.666668 0.666687L15.3333 15.3334" stroke="#5F5C79" stroke-linecap="round" stroke-linejoin="round"/>
</g>
<defs>
<clipPath id="clip0_408_74">
<rect width="20" height="20" fill="white"/>
</clipPath>
</defs>
</svg>
