<svg width="24" height="24" viewBox="0 0 24 24" fill="none" xmlns="http://www.w3.org/2000/svg">
<g clip-path="url(#clip0_470_105)">
<path fill-rule="evenodd" clip-rule="evenodd" d="M8.4953 3.83906L9.81857 2.00186L14.9256 2L16.1512 3.84396L12.2458 8.25761L8.4953 3.83906Z" fill="#676BDC"/>
<path fill-rule="evenodd" clip-rule="evenodd" d="M2.6682 9.83444C1.28046 8.45265 0.44455 6.96544 0 5.40369C2.10369 6.4448 4.74485 6.90352 7.92639 6.77674L9.39944 8.41485C9.32356 10.7291 8.76262 12.6798 7.96808 14.4551L5.03472 12.0824L6.71313 9.97852L6.70238 9.6436L2.6682 9.83444V9.83444Z" fill="#676BDC"/>
<path fill-rule="evenodd" clip-rule="evenodd" d="M21.8625 9.83444C23.2503 8.45265 24.0862 6.96544 24.5307 5.40369C22.427 6.4448 19.7859 6.90352 16.6043 6.77674L15.1313 8.41485C15.2072 10.7291 15.7681 12.6798 16.5627 14.4551L19.496 12.0824L17.8176 9.97852L17.8283 9.6436L21.8625 9.83444V9.83444Z" fill="#676BDC"/>
<path fill-rule="evenodd" clip-rule="evenodd" d="M9.09595 20.515C10.1941 18.2924 10.9209 14.3067 11.3005 8.67101L12.2604 9.68055L13.1406 8.66914C13.4374 13.2351 14.1367 17.2981 15.5111 20.5167L14.4928 21.951L10.1236 22L9.09595 20.515V20.515Z" fill="#676BDC"/>
</g>
<defs>
<clipPath id="clip0_470_105">
<rect width="24" height="24" fill="white"/>
</clipPath>
</defs>
</svg>
